<svg width="250" height="200" viewBox="0 0 250 200" fill="none" xmlns="http://www.w3.org/2000/svg">
<g opacity="0.5">
<path fill-rule="evenodd" clip-rule="evenodd" d="M93 135H176C179.866 135 183 131.866 183 128C183 124.134 179.866 121 176 121C176 121 170 117.866 170 114C170 110.134 173.952 107 178.826 107H189C192.866 107 196 103.866 196 100C196 96.134 192.866 93 189 93H167C170.866 93 174 89.866 174 86C174 82.134 170.866 79 167 79H207C210.866 79 214 75.866 214 72C214 68.134 210.866 65 207 65H109C105.134 65 102 68.134 102 72C102 75.866 105.134 79 109 79H69C65.134 79 62 82.134 62 86C62 89.866 65.134 93 69 93H94C97.866 93 101 96.134 101 100C101 103.866 97.866 107 94 107H54C50.134 107 47 110.134 47 114C47 117.866 50.134 121 54 121H93C89.134 121 86 124.134 86 128C86 131.866 89.134 135 93 135ZM200 100C200 103.866 203.134 107 207 107C210.866 107 214 103.866 214 100C214 96.134 210.866 93 207 93C203.134 93 200 96.134 200 100Z" fill="#E8E8E8"/>
<path fill-rule="evenodd" clip-rule="evenodd" d="M153.673 63.9999L162.975 131.843L163.811 138.649C164.08 140.842 162.521 142.837 160.328 143.107L101.768 150.297C99.5753 150.566 97.5795 149.007 97.3103 146.814L88.2945 73.3867C88.1599 72.2904 88.9395 71.2925 90.0359 71.1579C90.0428 71.157 90.0497 71.1562 90.0567 71.1554L94.915 70.6104M98.8436 70.1698L103.431 69.6552L98.8436 70.1698Z" fill="white"/>
<path d="M154.912 63.8302C154.818 63.1462 154.187 62.6678 153.503 62.7615C152.82 62.8553 152.341 63.4858 152.435 64.1697L154.912 63.8302ZM162.975 131.843L164.216 131.69L164.215 131.682L164.214 131.673L162.975 131.843ZM163.811 138.649L165.052 138.497L163.811 138.649ZM160.328 143.107L160.481 144.347L160.328 143.107ZM101.768 150.297L101.92 151.538L101.768 150.297ZM97.3103 146.814L98.551 146.662L97.3103 146.814ZM90.0567 71.1554L90.196 72.3976L90.0567 71.1554ZM95.0544 71.8527C95.7404 71.7757 96.2342 71.1572 96.1572 70.4711C96.0803 69.7851 95.4617 69.2913 94.7757 69.3682L95.0544 71.8527ZM98.7042 68.9276C98.0182 69.0045 97.5244 69.6231 97.6014 70.3091C97.6783 70.9952 98.2969 71.4889 98.9829 71.412L98.7042 68.9276ZM103.57 70.8974C104.256 70.8205 104.75 70.2019 104.673 69.5159C104.596 68.8298 103.977 68.3361 103.291 68.413L103.57 70.8974ZM152.435 64.1697L161.737 132.012L164.214 131.673L154.912 63.8302L152.435 64.1697ZM161.734 131.995L162.57 138.801L165.052 138.497L164.216 131.69L161.734 131.995ZM162.57 138.801C162.755 140.309 161.683 141.681 160.176 141.866L160.481 144.347C163.358 143.994 165.405 141.375 165.052 138.497L162.57 138.801ZM160.176 141.866L101.616 149.056L101.92 151.538L160.481 144.347L160.176 141.866ZM101.616 149.056C100.108 149.241 98.7361 148.169 98.551 146.662L96.0696 146.967C96.423 149.844 99.0424 151.891 101.92 151.538L101.616 149.056ZM98.551 146.662L89.5352 73.2344L87.0538 73.539L96.0696 146.967L98.551 146.662ZM89.5352 73.2344C89.4847 72.8232 89.7771 72.449 90.1882 72.3986L89.8835 69.9172C88.102 70.1359 86.8351 71.7575 87.0538 73.539L89.5352 73.2344ZM90.1882 72.3986C90.1908 72.3982 90.1934 72.3979 90.196 72.3976L89.9173 69.9132C89.9061 69.9145 89.8948 69.9158 89.8835 69.9172L90.1882 72.3986ZM90.196 72.3976L95.0544 71.8527L94.7757 69.3682L89.9173 69.9132L90.196 72.3976ZM98.9829 71.412L103.57 70.8974L103.291 68.413L98.7042 68.9276L98.9829 71.412Z" fill="#8C8C8C"/>
<path fill-rule="evenodd" clip-rule="evenodd" d="M151.141 68.2691L159.56 129.753L160.318 135.921C160.562 137.908 159.168 139.714 157.204 139.956L104.762 146.395C102.798 146.636 101.009 145.22 100.765 143.233L92.6148 76.8567C92.4802 75.7603 93.2598 74.7625 94.3562 74.6278L100.844 73.8313" fill="#E9E9E9"/>
<path d="M107.922 54C107.922 52.4812 109.153 51.25 110.672 51.25H156.229C156.958 51.25 157.657 51.5395 158.173 52.0549L171.616 65.4898C172.132 66.0056 172.422 66.7053 172.422 67.4349V130C172.422 131.519 171.191 132.75 169.672 132.75H110.672C109.153 132.75 107.922 131.519 107.922 130V54Z" fill="white" stroke="#8C8C8C" stroke-width="2.5"/>
<path d="M156.672 52.4028V64C156.672 65.6569 158.015 67 159.672 67H167.605" stroke="#8C8C8C" stroke-width="2.5" stroke-linecap="round" stroke-linejoin="round"/>
<path d="M118.672 64.5C117.291 64.5 116.172 65.6193 116.172 67H118.672V64.5ZM144.672 64.5H118.672V67H144.672V64.5ZM147.172 67C147.172 65.6193 146.053 64.5 144.672 64.5V67H147.172ZM144.672 69.5C146.053 69.5 147.172 68.3807 147.172 67H144.672V69.5ZM118.672 69.5H144.672V67H118.672V69.5ZM116.172 67C116.172 68.3807 117.291 69.5 118.672 69.5V67H116.172ZM118.672 76.5C117.291 76.5 116.172 77.6193 116.172 79H118.672V76.5ZM161.672 76.5H118.672V79H161.672V76.5ZM164.172 79C164.172 77.6193 163.053 76.5 161.672 76.5V79H164.172ZM161.672 81.5C163.053 81.5 164.172 80.3807 164.172 79H161.672V81.5ZM118.672 81.5H161.672V79H118.672V81.5ZM116.172 79C116.172 80.3807 117.291 81.5 118.672 81.5V79H116.172ZM118.672 92V89.5C117.291 89.5 116.172 90.6193 116.172 92H118.672ZM118.672 92H116.172C116.172 93.3807 117.291 94.5 118.672 94.5V92ZM161.672 92H118.672V94.5H161.672V92ZM161.672 92V94.5C163.053 94.5 164.172 93.3807 164.172 92H161.672ZM161.672 92H164.172C164.172 90.6193 163.053 89.5 161.672 89.5V92ZM118.672 92H161.672V89.5H118.672V92ZM118.672 102.5C117.291 102.5 116.172 103.619 116.172 105H118.672V102.5ZM161.672 102.5H118.672V105H161.672V102.5ZM164.172 105C164.172 103.619 163.053 102.5 161.672 102.5V105H164.172ZM161.672 107.5C163.053 107.5 164.172 106.381 164.172 105H161.672V107.5ZM118.672 107.5H161.672V105H118.672V107.5ZM116.172 105C116.172 106.381 117.291 107.5 118.672 107.5V105H116.172ZM118.672 118V115.5C117.291 115.5 116.172 116.619 116.172 118H118.672ZM118.672 118H116.172C116.172 119.381 117.291 120.5 118.672 120.5V118ZM144.672 118H118.672V120.5H144.672V118ZM144.672 118V120.5C146.053 120.5 147.172 119.381 147.172 118H144.672ZM144.672 118H147.172C147.172 116.619 146.053 115.5 144.672 115.5V118ZM118.672 118H144.672V115.5H118.672V118Z" fill="#8C8C8C"/>
</g>
</svg>
